<svg width="52" height="55" viewBox="0 0 52 55" fill="none" xmlns="http://www.w3.org/2000/svg">
<path d="M29.1675 4.4918C30.1269 5.42578 30.6603 6.71342 30.6603 8.05706V43.9396C30.6603 46.7348 28.3968 49 25.6077 49C24.2628 49 22.9761 48.4662 22.0478 47.5049L12.8646 38.3076C12.3478 37.79 11.6468 37.4992 10.9159 37.4992H7.34928C3.29242 37.5161 0 34.2213 0 30.1386V21.858C0 17.8133 3.29242 14.5185 7.34928 14.4975H10.863C11.5912 14.4975 12.2899 14.2089 12.8062 13.6946L22.0478 4.4918C24.0012 2.50354 27.2023 2.50193 29.1675 4.4918ZM41.7504 12.1392C45.6821 15.608 48 20.778 48 26.3433C48 31.9088 45.6821 37.0787 41.7504 40.5475C40.989 41.2193 39.828 41.1457 39.1572 40.3831C38.4865 39.6206 38.56 38.4578 39.3214 37.786C42.4589 35.0178 44.3254 30.8549 44.3254 26.3434C44.3254 21.8319 42.4589 17.6689 39.3214 14.9007C38.56 14.229 38.4865 13.0662 39.1572 12.3036C39.828 11.541 40.989 11.4674 41.7504 12.1392V12.1392ZM36.2667 17.5095C38.6335 19.6757 40.0191 22.864 40.0191 26.2843C40.0191 29.7066 38.6319 32.8966 36.2627 35.0628C35.5133 35.748 34.3512 35.695 33.667 34.9445C32.9897 34.2014 33.0348 33.0533 33.7629 32.3656L33.7852 32.3448L33.833 32.3007C35.4061 30.8362 36.3445 28.6546 36.3445 26.2844C36.3445 23.8915 35.3882 21.6909 33.7878 20.2262C33.0388 19.5406 32.9864 18.3767 33.671 17.6265C34.3555 16.8763 35.5176 16.8239 36.2667 17.5095V17.5095Z" fill="#4377FF"/>
</svg>
