<svg width="70" height="70" viewBox="0 0 70 70" fill="none" xmlns="http://www.w3.org/2000/svg">
<g id="btn_scale_back">
<path id="Vector" d="M29.685 63.4376C28.1462 63.4348 26.9001 62.1879 26.8973 60.6499V47.3724L11.9601 62.3096C10.8807 63.4075 9.11568 63.4232 8.01783 62.3438C6.91997 61.2644 6.90425 59.4994 7.98365 58.4015C7.99458 58.3899 8.00621 58.379 8.01783 58.3673L22.7281 43.6626H9.3399C7.79771 43.6147 6.58706 42.3254 6.63492 40.7839C6.68072 39.3094 7.86539 38.1248 9.3399 38.079H29.685C31.2238 38.0817 32.47 39.3286 32.4727 40.8667V60.6389C32.4754 62.1811 31.2272 63.4341 29.685 63.4376ZM60.4836 32.0025H40.1413C38.6018 32.0011 37.3536 30.7543 37.3508 29.2148V9.44048C37.303 7.90035 38.5129 6.61246 40.0531 6.5646C41.5932 6.51675 42.8811 7.72671 42.929 9.26685C42.931 9.32496 42.931 9.38238 42.929 9.44048V22.7118L57.8744 7.77457C58.9633 6.6856 60.7284 6.68628 61.8173 7.77457C62.0761 8.03337 62.2814 8.34063 62.4215 8.67878C62.5615 9.01693 62.6336 9.37936 62.6335 9.74537C62.6352 10.1113 62.5644 10.4739 62.4251 10.8123C62.2859 11.1507 62.0809 11.4581 61.8221 11.7169L47.1125 26.4271H60.4891C62.0292 26.3793 63.3171 27.5892 63.365 29.1294C63.4128 30.6695 62.2029 31.9574 60.6627 32.0052C60.6046 32.0073 60.5472 32.0073 60.4891 32.0052L60.4836 32.0025Z" fill="#FEFCFD"/>
</g>
</svg>
