<svg width="178" height="178" viewBox="0 0 178 178" fill="none" xmlns="http://www.w3.org/2000/svg">
<g id="btn_chat_close" clip-path="url(#clip0_1109_2040)">
<path id="Vector" d="M0.0841675 88.924C0.0841673 100.568 2.37764 112.098 6.83363 122.856C11.2896 133.614 17.8209 143.388 26.0545 151.622C34.2881 159.855 44.0628 166.387 54.8205 170.843C65.5782 175.299 77.1082 177.592 88.7523 177.592C100.396 177.592 111.926 175.299 122.684 170.843C133.442 166.387 143.217 159.855 151.45 151.622C159.684 143.388 166.215 133.614 170.671 122.856C175.127 112.098 177.42 100.568 177.42 88.924C177.42 77.2799 175.127 65.7499 170.671 54.9922C166.215 44.2345 159.684 34.4598 151.45 26.2262C143.217 17.9926 133.442 11.4613 122.684 7.00532C111.926 2.54933 100.396 0.255859 88.7523 0.255859C77.1082 0.255859 65.5782 2.54933 54.8205 7.00532C44.0628 11.4613 34.2881 17.9926 26.0545 26.2262C17.8209 34.4598 11.2896 44.2345 6.83363 54.9922C2.37764 65.7499 0.0841673 77.2799 0.0841675 88.924Z" fill="#E84941"/>
<path id="Vector_2" d="M131.578 109.283C148.469 111.092 146.356 98.8755 146.356 90.4345C146.356 80.9345 124.04 67.6631 88.7523 67.815C53.6166 67.815 31.301 81.2339 31.301 90.7383C31.301 99.0319 29.0399 111.396 46.0783 109.434C62.9647 107.625 61.9101 101.293 61.9101 92.6955C61.9101 86.6631 75.7848 85.3047 88.7523 85.3047C101.72 85.3047 115.595 86.5112 115.595 92.5436C115.595 101.137 114.54 107.473 131.578 109.283Z" fill="white"/>
</g>
<defs>
<clipPath id="clip0_1109_2040">
<rect width="178" height="178" fill="white"/>
</clipPath>
</defs>
</svg>
