<svg width="178" height="178" viewBox="0 0 178 178" fill="none" xmlns="http://www.w3.org/2000/svg">
<g id="Frame">
<path id="Vector" d="M0 88.924C-1.7351e-07 100.568 2.29347 112.098 6.74946 122.856C11.2055 133.614 17.7367 143.388 25.9703 151.622C34.2039 159.855 43.9786 166.387 54.7363 170.843C65.494 175.299 77.0241 177.592 88.6682 177.592C100.312 177.592 111.842 175.299 122.6 170.843C133.358 166.387 143.132 159.855 151.366 151.622C159.6 143.388 166.131 133.614 170.587 122.856C175.043 112.098 177.336 100.568 177.336 88.924C177.336 77.2799 175.043 65.7499 170.587 54.9922C166.131 44.2345 159.6 34.4598 151.366 26.2262C143.132 17.9926 133.358 11.4613 122.6 7.00532C111.842 2.54933 100.312 0.255859 88.6682 0.255859C77.0241 0.255859 65.494 2.54933 54.7363 7.00532C43.9786 11.4613 34.2039 17.9926 25.9703 26.2262C17.7367 34.4598 11.2055 44.2345 6.74946 54.9922C2.29347 65.7499 -1.7351e-07 77.2799 0 88.924Z" fill="white"/>
<path id="Vector_2" d="M123 89L66 127V51L123 89Z" fill="black"/>
</g>
</svg>
