<svg width="64" height="64" viewBox="0 0 64 64" fill="none" xmlns="http://www.w3.org/2000/svg">
<g id="btn_send_unavailable" clip-path="url(#clip0_3436_1795)">
<path id="Vector" d="M32.9626 16.192H16.1626C14.7766 16.192 13.6426 15.058 13.6426 13.672C13.6426 12.286 14.7766 11.152 16.1626 11.152H32.9626C34.3486 11.152 35.4826 12.286 35.4826 13.672C35.4826 15.058 34.3486 16.192 32.9626 16.192ZM39.6826 27.112H16.1626C14.7766 27.112 13.6426 25.978 13.6426 24.592C13.6426 23.206 14.7766 22.072 16.1626 22.072H39.6826C41.0686 22.072 42.2026 23.206 42.2026 24.592C42.2026 25.978 41.0686 27.112 39.6826 27.112Z" fill="white"/>
<path id="Vector_2" d="M0.0253906 32C0.0253906 36.199 0.852437 40.3568 2.45931 44.2362C4.06619 48.1155 6.42142 51.6403 9.39053 54.6095C12.3596 57.5786 15.8845 59.9338 19.7638 61.5407C23.6432 63.1476 27.801 63.9746 32 63.9746C36.199 63.9746 40.3568 63.1476 44.2361 61.5407C48.1155 59.9338 51.6403 57.5786 54.6094 54.6095C57.5786 51.6403 59.9338 48.1155 61.5407 44.2362C63.1475 40.3568 63.9746 36.199 63.9746 32C63.9746 27.801 63.1475 23.6432 61.5407 19.7639C59.9338 15.8845 57.5786 12.3597 54.6094 9.39055C51.6403 6.42143 48.1155 4.0662 44.2361 2.45933C40.3568 0.852453 36.199 0.0254059 32 0.0254059C27.801 0.0254059 23.6432 0.852453 19.7638 2.45933C15.8845 4.0662 12.3596 6.42143 9.39053 9.39055C6.42142 12.3597 4.06619 15.8845 2.45931 19.7639C0.852437 23.6432 0.0253906 27.801 0.0253906 32Z" fill="#B1B1B1"/>
<path id="Vector_3" d="M51.6409 15.8669L12.0491 31.0533C11.9744 31.0818 11.9091 31.1305 11.8606 31.1941C11.812 31.2576 11.7821 31.3334 11.7743 31.413C11.7664 31.4925 11.7809 31.5727 11.8161 31.6445C11.8513 31.7163 11.9058 31.7769 11.9735 31.8194L21.778 38.0119C21.9217 38.1026 22.1056 38.1001 22.2467 38.006L33.7724 30.3217C34.1663 30.0587 34.6342 30.5317 34.3671 30.9231L27.3649 41.193C27.3322 41.2408 27.3096 41.2947 27.2982 41.3514C27.2869 41.4082 27.2871 41.4667 27.2989 41.5234C27.3106 41.5801 27.3337 41.6338 27.3667 41.6814C27.3997 41.7289 27.4419 41.7694 27.4909 41.8003L37.4608 48.0969C37.513 48.1299 37.5717 48.1512 37.6329 48.1595C37.694 48.1678 37.7563 48.1629 37.8154 48.1451C37.8745 48.1272 37.9291 48.0969 37.9754 48.0561C38.0218 48.0153 38.0589 47.9651 38.0841 47.9087L52.1877 16.4457C52.223 16.3679 52.2343 16.2814 52.2202 16.1972C52.2061 16.1129 52.1673 16.0348 52.1086 15.9727C52.05 15.9106 51.9742 15.8674 51.8909 15.8486C51.8075 15.8297 51.7205 15.8361 51.6409 15.8669ZM21.4899 40.7998L20.4701 44.5387C20.3215 45.0847 20.9288 45.5223 21.4 45.209L24.4585 43.1695C24.5376 43.1166 24.6034 43.046 24.6505 42.9632C24.6976 42.8805 24.7247 42.7879 24.7298 42.6928C24.7349 42.5977 24.7177 42.5028 24.6796 42.4155C24.6415 42.3282 24.5837 42.251 24.5105 42.19L22.471 40.4907C22.3924 40.425 22.2985 40.3801 22.198 40.3602C22.0975 40.3403 21.9936 40.346 21.8959 40.3768C21.7982 40.4076 21.7098 40.4625 21.6388 40.5364C21.5679 40.6103 21.5166 40.7009 21.4899 40.7998Z" fill="white"/>
</g>
<defs>
<clipPath id="clip0_3436_1795">
<rect width="64" height="64" fill="white"/>
</clipPath>
</defs>
</svg>
