<svg width="64" height="64" viewBox="0 0 64 64" fill="none" xmlns="http://www.w3.org/2000/svg">
<circle cx="32" cy="32" r="30" stroke="black" stroke-width="4"/>
<path d="M39.4169 11.3353C39.2126 11.1238 38.9678 10.9556 38.6971 10.8407C38.4264 10.7259 38.1354 10.6667 37.8413 10.6667C37.5472 10.6667 37.2562 10.7259 36.9855 10.8407C36.7148 10.9556 36.47 11.1238 36.2657 11.3353C35.8837 11.7416 35.6711 12.2782 35.6711 12.8359C35.6711 13.3935 35.8837 13.9302 36.2657 14.3365C40.9042 18.9841 43.5094 25.2821 43.5094 31.8485C43.5094 38.4148 40.9042 44.7129 36.2657 49.3605C35.8441 49.7825 35.6074 50.3546 35.6074 50.9511C35.6074 51.5476 35.8441 52.1197 36.2657 52.5417C36.6877 52.9633 37.2598 53.2 37.8563 53.2C38.4528 53.2 39.0249 52.9633 39.4469 52.5417C44.877 47.0575 47.9206 39.65 47.915 31.9323C47.9093 24.2146 44.855 16.8116 39.4169 11.3353Z" fill="black"/>
<path d="M29.543 19.2284C29.1303 18.8593 28.596 18.6552 28.0424 18.6552C27.4887 18.6552 26.9545 18.8593 26.5418 19.2284C26.1664 19.638 25.9581 20.1734 25.9581 20.729C25.9581 21.2846 26.1664 21.82 26.5418 22.2296C29.1992 24.9009 30.691 28.5156 30.691 32.2836C30.691 36.0516 29.1992 39.6664 26.5418 42.3377C26.1727 42.7503 25.9686 43.2846 25.9686 43.8383C25.9686 44.3919 26.1727 44.9262 26.5418 45.3389C26.9514 45.7143 27.4868 45.9225 28.0424 45.9225C28.598 45.9225 29.1334 45.7143 29.543 45.3389C32.935 41.8394 34.8318 37.1572 34.8318 32.2836C34.8318 27.4101 32.935 22.7278 29.543 19.2284ZM16.3377 29.4625C15.9893 29.8084 15.7127 30.2199 15.524 30.6732C15.3353 31.1264 15.2381 31.6126 15.2381 32.1036C15.2381 32.5946 15.3353 33.0807 15.524 33.534C15.7127 33.9872 15.9893 34.3987 16.3377 34.7446C16.861 35.2726 17.5294 35.6331 18.258 35.7806C18.9867 35.928 19.7426 35.8556 20.43 35.5726C21.1175 35.2897 21.7053 34.8088 22.119 34.1912C22.5327 33.5736 22.7535 32.8469 22.7535 32.1036C22.7535 31.3602 22.5327 30.6336 22.119 30.0159C21.7053 29.3983 21.1175 28.9175 20.43 28.6345C19.7426 28.3515 18.9867 28.2792 18.258 28.4266C17.5294 28.574 16.861 28.9346 16.3377 29.4625Z" fill="black"/>
</svg>
