<svg width="64" height="64" viewBox="0 0 64 64" fill="none" xmlns="http://www.w3.org/2000/svg">
<path d="M0.0253906 32C0.0253906 36.199 0.852437 40.3568 2.45931 44.2361C4.06619 48.1155 6.42142 51.6403 9.39053 54.6094C12.3596 57.5786 15.8845 59.9338 19.7638 61.5407C23.6432 63.1475 27.801 63.9746 32 63.9746C36.199 63.9746 40.3568 63.1475 44.2361 61.5407C48.1155 59.9338 51.6403 57.5786 54.6094 54.6094C57.5786 51.6403 59.9338 48.1155 61.5407 44.2361C63.1475 40.3568 63.9746 36.199 63.9746 32C63.9746 27.801 63.1475 23.6432 61.5407 19.7638C59.9338 15.8845 57.5786 12.3597 54.6094 9.39053C51.6403 6.42142 48.1155 4.06619 44.2361 2.45931C40.3568 0.852438 36.199 0.0253906 32 0.0253906C27.801 0.0253906 23.6432 0.852438 19.7638 2.45931C15.8845 4.06619 12.3596 6.42142 9.39053 9.39053C6.42142 12.3597 4.06619 15.8845 2.45931 19.7638C0.852437 23.6432 0.0253906 27.801 0.0253906 32Z" fill="#0DBE66"/>
</svg>
