<svg width="48" height="48" viewBox="0 0 48 48" fill="none" xmlns="http://www.w3.org/2000/svg">
<path id="Vector" d="M47.064 38.0584L37.1044 28.0985C36.5036 27.4991 35.6895 27.1625 34.8408 27.1625C33.9921 27.1625 33.1781 27.4991 32.5772 28.0985L30.3136 30.3621C29.0331 31.6425 24.8868 30.3681 21.2595 26.7404C17.6322 23.1127 16.3553 18.9684 17.6378 17.6863L19.9014 15.4227C20.5008 14.8219 20.8374 14.0078 20.8374 13.1591C20.8374 12.3104 20.5008 11.4964 19.9014 10.8955L9.9414 0.935963C9.34062 0.3366 8.52662 0 7.67799 0C6.82935 0 6.01536 0.3366 5.41457 0.935963L3.15095 3.19957C1.47834 4.87217 0.459575 7.07216 0.122253 9.73871C-0.19066 12.212 0.0978447 14.9858 0.979364 17.9817C2.7476 23.9998 6.73545 30.3269 12.205 35.7948C17.6746 41.2628 24.0005 45.2522 30.0167 47.0204C32.2331 47.6723 34.327 48 36.2677 48C36.9341 48.0011 37.6 47.9602 38.2612 47.8775C40.9278 47.5402 43.1278 46.5215 44.8004 44.8489L47.064 42.5852C47.6634 41.9845 48 41.1705 48 40.3218C48 39.4732 47.6634 38.6592 47.064 38.0584Z" fill="#1D1D1D"/>
</svg>
