<svg width="178" height="178" viewBox="0 0 178 178" fill="none" xmlns="http://www.w3.org/2000/svg">
<g id="Frame">
<path id="Vector" d="M0 88.924C-1.7351e-07 100.568 2.29347 112.098 6.74946 122.856C11.2055 133.614 17.7367 143.388 25.9703 151.622C34.2039 159.855 43.9786 166.387 54.7363 170.843C65.494 175.299 77.0241 177.592 88.6682 177.592C100.312 177.592 111.842 175.299 122.6 170.843C133.358 166.387 143.132 159.855 151.366 151.622C159.6 143.388 166.131 133.614 170.587 122.856C175.043 112.098 177.336 100.568 177.336 88.924C177.336 77.2799 175.043 65.7499 170.587 54.9922C166.131 44.2345 159.6 34.4598 151.366 26.2262C143.132 17.9926 133.358 11.4613 122.6 7.00532C111.842 2.54933 100.312 0.255859 88.6682 0.255859C77.0241 0.255859 65.494 2.54933 54.7363 7.00532C43.9786 11.4613 34.2039 17.9926 25.9703 26.2262C17.7367 34.4598 11.2055 44.2345 6.74946 54.9922C2.29347 65.7499 -1.7351e-07 77.2799 0 88.924Z" fill="#2D1818"/>
<path id="Vector_2" d="M107.255 89.2941C107.255 81.8319 103.084 75.6209 96.8353 72.721V81.832L107.255 92.1941V89.2941ZM117.666 89.2941C117.666 93.0252 116.836 96.7508 115.589 100.065L121.837 106.287C124.75 101.313 126 95.0937 126 88.8797C126 71.0612 113.503 56.1452 96.8353 52.4141V61.1191C108.921 65.259 117.666 76.0351 117.666 89.2941ZM56.418 52L51 57.3882L70.5864 76.8665H51.0001V101.722H67.6651L88.5013 122.446V94.6823L106.419 112.498C103.503 114.572 100.587 116.229 96.8352 117.472V126.177C102.667 124.929 107.666 122.446 112.254 118.715L120.587 127L126 121.612L88.5012 84.3233L56.4181 52H56.418ZM88.5014 56.1454L79.7508 64.8504L88.5013 73.547V56.1453L88.5014 56.1454Z" fill="white"/>
</g>
</svg>
