<svg width="42" height="34" viewBox="0 0 42 34" fill="none" xmlns="http://www.w3.org/2000/svg">
<path d="M40.6409 0.866856L1.04914 16.0532C0.974424 16.0817 0.909125 16.1304 0.860576 16.194C0.812026 16.2575 0.782148 16.3333 0.774296 16.4129C0.766444 16.4924 0.780928 16.5726 0.816123 16.6444C0.851318 16.7162 0.905831 16.7768 0.973539 16.8193L10.778 23.0118C10.9217 23.1025 11.1056 23.1 11.2467 23.0059L22.7724 15.3216C23.1663 15.0587 23.6342 15.5316 23.3671 15.923L16.3649 26.1929C16.3322 26.2407 16.3096 26.2946 16.2982 26.3513C16.2869 26.4081 16.2871 26.4666 16.2989 26.5233C16.3106 26.58 16.3337 26.6337 16.3667 26.6813C16.3997 26.7288 16.4419 26.7693 16.4909 26.8002L26.4608 33.0968C26.513 33.1298 26.5717 33.1511 26.6329 33.1594C26.694 33.1677 26.7563 33.1628 26.8154 33.145C26.8745 33.1271 26.9291 33.0968 26.9754 33.056C27.0218 33.0153 27.0589 32.965 27.0841 32.9087L41.1877 1.44562C41.223 1.36783 41.2343 1.2813 41.2202 1.19706C41.2061 1.11282 41.1673 1.03468 41.1086 0.972602C41.05 0.91052 40.9742 0.867309 40.8909 0.848476C40.8075 0.829643 40.7205 0.836042 40.6409 0.866856ZM10.4899 25.7997L9.47014 29.5386C9.32146 30.0846 9.92878 30.5222 10.4 30.2089L13.4585 28.1694C13.5376 28.1165 13.6034 28.0459 13.6505 27.9631C13.6976 27.8804 13.7247 27.7878 13.7298 27.6927C13.7349 27.5976 13.7177 27.5027 13.6796 27.4154C13.6415 27.3281 13.5837 27.2509 13.5105 27.1899L11.471 25.4906C11.3924 25.4249 11.2985 25.38 11.198 25.3601C11.0975 25.3402 10.9936 25.3459 10.8959 25.3767C10.7982 25.4075 10.7098 25.4624 10.6388 25.5363C10.5679 25.6103 10.5166 25.7008 10.4899 25.7997Z" fill="white"/>
</svg>
