<svg width="64" height="64" viewBox="0 0 64 64" fill="none" xmlns="http://www.w3.org/2000/svg">
<g id="btn_keyboard">
<path id="Vector" d="M32 0.605957C25.7909 0.605957 19.7212 2.44718 14.5585 5.89679C9.39579 9.3464 5.37195 14.2495 2.99581 19.986C0.619682 25.7225 -0.00202318 32.0347 1.20932 38.1246C2.42066 44.2144 5.41064 49.8082 9.80117 54.1988C14.1917 58.5893 19.7856 61.5793 25.8754 62.7906C31.9652 64.002 38.2775 63.3803 44.014 61.0041C49.7505 58.628 54.6535 54.6041 58.1031 49.4414C61.5528 44.2787 63.394 38.209 63.394 31.9999C63.3847 23.6766 60.0742 15.6968 54.1887 9.81127C48.3032 3.92578 40.3234 0.615231 32 0.605957ZM32 58.909C26.6779 58.909 21.4753 57.3308 17.0501 54.374C12.625 51.4172 9.17596 47.2146 7.13928 42.2976C5.10259 37.3806 4.5697 31.9701 5.60799 26.7502C6.64629 21.5303 9.20913 16.7356 12.9724 12.9723C16.7357 9.20899 21.5305 6.64615 26.7503 5.60786C31.9702 4.56956 37.3807 5.10245 42.2977 7.13914C47.2147 9.17582 51.4173 12.6248 54.3741 17.05C57.3309 21.4752 58.9091 26.6778 58.9091 31.9999C58.8999 39.1338 56.0618 45.9728 51.0174 51.0173C45.973 56.0617 39.1339 58.8997 32 58.909Z" fill="#333333"/>
<path id="Vector_2" d="M15.1818 24.1517C15.1818 25.0438 15.5361 25.8994 16.1669 26.5302C16.7978 27.161 17.6533 27.5154 18.5454 27.5154C19.4375 27.5154 20.293 27.161 20.9238 26.5302C21.5547 25.8994 21.909 25.0438 21.909 24.1517C21.909 23.2596 21.5547 22.4041 20.9238 21.7733C20.293 21.1425 19.4375 20.7881 18.5454 20.7881C17.6533 20.7881 16.7978 21.1425 16.1669 21.7733C15.5361 22.4041 15.1818 23.2596 15.1818 24.1517Z" fill="#333333"/>
<path id="Vector_3" d="M27.5151 27.5154C28.1804 27.5154 28.8307 27.3181 29.3839 26.9485C29.937 26.5789 30.3681 26.0536 30.6227 25.4389C30.8773 24.8243 30.9439 24.148 30.8141 23.4955C30.6843 22.843 30.364 22.2437 29.8936 21.7733C29.4232 21.3029 28.8238 20.9825 28.1713 20.8527C27.5189 20.7229 26.8425 20.7895 26.2279 21.0441C25.6133 21.2987 25.088 21.7298 24.7184 22.283C24.3488 22.8361 24.1515 23.4865 24.1515 24.1517C24.1515 25.0438 24.5059 25.8994 25.1367 26.5302C25.7675 27.161 26.623 27.5154 27.5151 27.5154ZM36.4848 20.7881C35.8196 20.7881 35.1692 20.9854 34.6161 21.355C34.0629 21.7246 33.6318 22.2499 33.3772 22.8645C33.1226 23.4791 33.056 24.1555 33.1858 24.8079C33.3156 25.4604 33.636 26.0598 34.1064 26.5302C34.5768 27.0006 35.1761 27.3209 35.8286 27.4507C36.4811 27.5805 37.1574 27.5139 37.772 27.2593C38.3867 27.0047 38.912 26.5736 39.2816 26.0205C39.6512 25.4673 39.8485 24.817 39.8485 24.1517C39.8485 23.2596 39.4941 22.4041 38.8633 21.7733C38.2325 21.1425 37.3769 20.7881 36.4848 20.7881ZM45.4545 20.7881C44.7893 20.7881 44.1389 20.9854 43.5858 21.355C43.0326 21.7246 42.6015 22.2499 42.3469 22.8645C42.0923 23.4791 42.0257 24.1555 42.1555 24.8079C42.2853 25.4604 42.6057 26.0598 43.0761 26.5302C43.5465 27.0006 44.1458 27.3209 44.7983 27.4507C45.4508 27.5805 46.1271 27.5139 46.7417 27.2593C47.3563 27.0047 47.8817 26.5736 48.2513 26.0205C48.6209 25.4673 48.8182 24.817 48.8182 24.1517C48.8182 23.2596 48.4638 22.4041 47.833 21.7733C47.2022 21.1425 46.3466 20.7881 45.4545 20.7881Z" fill="#333333"/>
<path id="Vector_4" d="M15.1818 33.1214C15.1818 34.0135 15.5361 34.8691 16.1669 35.4999C16.7978 36.1307 17.6533 36.4851 18.5454 36.4851C19.4375 36.4851 20.293 36.1307 20.9238 35.4999C21.5547 34.8691 21.909 34.0135 21.909 33.1214C21.909 32.2294 21.5547 31.3738 20.9238 30.743C20.293 30.1122 19.4375 29.7578 18.5454 29.7578C17.6533 29.7578 16.7978 30.1122 16.1669 30.743C15.5361 31.3738 15.1818 32.2294 15.1818 33.1214Z" fill="#333333"/>
<path id="Vector_5" d="M27.5151 36.4851C28.1804 36.4851 28.8307 36.2878 29.3839 35.9182C29.937 35.5486 30.3681 35.0233 30.6227 34.4087C30.8773 33.794 30.9439 33.1177 30.8141 32.4652C30.6843 31.8128 30.364 31.2134 29.8936 30.743C29.4232 30.2726 28.8238 29.9522 28.1713 29.8224C27.5189 29.6927 26.8425 29.7593 26.2279 30.0139C25.6133 30.2684 25.088 30.6996 24.7184 31.2527C24.3488 31.8059 24.1515 32.4562 24.1515 33.1215C24.1515 34.0135 24.5059 34.8691 25.1367 35.4999C25.7675 36.1307 26.623 36.4851 27.5151 36.4851ZM36.4848 40.9699H27.5151C26.623 40.9699 25.7675 41.3243 25.1367 41.9551C24.5059 42.5859 24.1515 43.4415 24.1515 44.3336C24.1515 45.2257 24.5059 46.0812 25.1367 46.712C25.7675 47.3428 26.623 47.6972 27.5151 47.6972H36.4848C37.3769 47.6972 38.2325 47.3428 38.8633 46.712C39.4941 46.0812 39.8485 45.2257 39.8485 44.3336C39.8485 43.4415 39.4941 42.5859 38.8633 41.9551C38.2325 41.3243 37.3769 40.9699 36.4848 40.9699ZM36.4848 29.7578C35.8196 29.7578 35.1692 29.9551 34.6161 30.3247C34.0629 30.6943 33.6318 31.2196 33.3772 31.8342C33.1226 32.4489 33.056 33.1252 33.1858 33.7777C33.3156 34.4301 33.636 35.0295 34.1064 35.4999C34.5768 35.9703 35.1761 36.2907 35.8286 36.4205C36.4811 36.5502 37.1574 36.4836 37.772 36.229C38.3867 35.9745 38.912 35.5433 39.2816 34.9902C39.6512 34.437 39.8485 33.7867 39.8485 33.1215C39.8485 32.2294 39.4941 31.3738 38.8633 30.743C38.2325 30.1122 37.3769 29.7578 36.4848 29.7578ZM45.4545 29.7578C44.7893 29.7578 44.1389 29.9551 43.5858 30.3247C43.0326 30.6943 42.6015 31.2196 42.3469 31.8342C42.0923 32.4489 42.0257 33.1252 42.1555 33.7777C42.2853 34.4301 42.6057 35.0295 43.0761 35.4999C43.5465 35.9703 44.1458 36.2907 44.7983 36.4205C45.4508 36.5502 46.1271 36.4836 46.7417 36.229C47.3563 35.9745 47.8817 35.5433 48.2513 34.9902C48.6209 34.437 48.8182 33.7867 48.8182 33.1215C48.8182 32.2294 48.4638 31.3738 47.833 30.743C47.2022 30.1122 46.3466 29.7578 45.4545 29.7578Z" fill="#333333"/>
</g>
</svg>
