<svg width="178" height="178" viewBox="0 0 178 178" fill="none" xmlns="http://www.w3.org/2000/svg">
<g id="Frame">
<path id="Vector" d="M0 88.924C-1.7351e-07 100.568 2.29347 112.098 6.74946 122.856C11.2055 133.614 17.7367 143.388 25.9703 151.622C34.2039 159.855 43.9786 166.387 54.7363 170.843C65.494 175.299 77.0241 177.592 88.6682 177.592C100.312 177.592 111.842 175.299 122.6 170.843C133.358 166.387 143.132 159.855 151.366 151.622C159.6 143.388 166.131 133.614 170.587 122.856C175.043 112.098 177.336 100.568 177.336 88.924C177.336 77.2799 175.043 65.7499 170.587 54.9922C166.131 44.2345 159.6 34.4598 151.366 26.2262C143.132 17.9926 133.358 11.4613 122.6 7.00532C111.842 2.54933 100.312 0.255859 88.6682 0.255859C77.0241 0.255859 65.494 2.54933 54.7363 7.00532C43.9786 11.4613 34.2039 17.9926 25.9703 26.2262C17.7367 34.4598 11.2055 44.2345 6.74946 54.9922C2.29347 65.7499 -1.7351e-07 77.2799 0 88.924Z" fill="white"/>
<path id="Vector_2" d="M115.664 114.805C115.009 115.293 114.244 115.538 113.371 115.538C112.278 115.538 111.336 115.144 110.544 114.357C109.753 113.569 109.357 112.633 109.357 111.547C109.357 110.352 109.821 109.347 110.749 108.533C110.804 108.479 110.858 108.438 110.913 108.411C110.968 108.384 111.022 108.343 111.077 108.289L111.159 108.207C112.688 107.175 114.108 105.954 115.419 104.542C116.729 103.13 117.876 101.596 118.859 99.9397C119.842 98.2835 120.607 96.5186 121.153 94.6452C121.699 92.7718 121.972 90.8305 121.972 88.8214C121.972 84.7487 120.934 81.0291 118.859 77.6623C116.784 74.2956 114.19 71.5262 111.077 69.3542C109.93 68.5396 109.357 67.4536 109.357 66.0961C109.357 65.01 109.753 64.0733 110.544 63.286C111.336 62.4986 112.278 62.1049 113.371 62.1049C114.299 62.1049 115.118 62.4035 115.828 63.0009C117.849 64.4127 119.733 66.0553 121.481 67.9288C123.228 69.8022 124.73 71.8385 125.986 74.0377C127.242 76.2369 128.225 78.5855 128.935 81.0834C129.645 83.5812 130 86.1606 130 88.8214C130 91.5365 129.645 94.1429 128.935 96.6408C128.225 99.1387 127.228 101.501 125.945 103.727C124.662 105.954 123.146 108.003 121.399 109.877C119.651 111.75 117.74 113.393 115.664 114.805ZM111.077 78.2325C112.224 79.8073 113.139 81.3956 113.821 82.9975C114.504 84.5994 114.845 86.5407 114.845 88.8214C114.845 90.9934 114.49 92.9483 113.78 94.686C113.07 96.4236 112.169 97.9984 111.077 99.4102C110.64 100.008 110.176 100.537 109.684 100.999C109.193 101.46 108.565 101.691 107.8 101.691C106.817 101.691 105.984 101.338 105.302 100.632C104.619 99.9261 104.278 99.0844 104.278 98.107C104.278 97.6726 104.36 97.2381 104.523 96.8037H104.442C104.715 96.2064 105.042 95.6362 105.425 95.0932C105.807 94.5502 106.175 93.9936 106.53 93.4234C106.885 92.8533 107.186 92.2016 107.432 91.4686C107.677 90.7355 107.8 89.8531 107.8 88.8214C107.8 87.8439 107.677 86.9887 107.432 86.2556C107.186 85.5225 106.885 84.8573 106.53 84.26C106.175 83.6627 105.807 83.0925 105.425 82.5495C105.042 82.0065 104.742 81.4363 104.523 80.839C104.36 80.4589 104.278 80.0245 104.278 79.5358C104.278 78.5583 104.619 77.7167 105.302 77.0107C105.984 76.3048 106.817 75.9518 107.8 75.9518C108.565 75.9518 109.193 76.1826 109.684 76.6442C110.176 77.1058 110.64 77.6352 111.077 78.2325ZM84.6174 126.615C81.8322 124.118 78.8831 121.511 75.7702 118.796C72.6573 116.081 69.7629 113.583 67.0869 111.302C63.974 108.696 60.8611 106.116 57.7483 103.564C57.1475 103.619 56.5468 103.646 55.9461 103.646C55.4545 103.7 54.9357 103.727 54.3896 103.727H52.997C51.5225 103.727 50.321 103.279 49.3926 102.383C48.4642 101.487 48 100.415 48 99.1659V78.6398H48.0819L48 78.5583C48 77.0379 48.4779 75.7889 49.4336 74.8115C50.3893 73.8341 51.5771 73.3454 52.997 73.3454H57.6663C62.6906 69.1098 67.2507 65.3087 71.3467 61.942C73.0942 60.4758 74.8145 59.0504 76.5075 57.6657C78.2005 56.281 79.7296 55.0185 81.0949 53.8782C82.4602 52.7378 83.6071 51.7875 84.5355 51.0273C85.4639 50.2671 86.0373 49.8055 86.2557 49.6426C87.8941 48.448 89.2184 47.905 90.2288 48.0136C91.2391 48.1222 92.031 48.6109 92.6044 49.4797C93.1778 50.3486 93.5738 51.4074 93.7922 52.6564C94.0107 53.9053 94.1199 55.0457 94.1199 56.0774V121.81V122.054C94.1199 123.086 93.9287 124.185 93.5465 125.353C93.1642 126.52 92.5771 127.444 91.7852 128.122C90.9933 128.801 89.9967 129.086 88.7952 128.978C87.5937 128.869 86.2011 128.082 84.6174 126.615Z" fill="black"/>
</g>
</svg>
