<svg width="64" height="64" viewBox="0 0 64 64" fill="none" xmlns="http://www.w3.org/2000/svg">
<g clip-path="url(#clip0_227_1552)">
<path d="M31.9774 0.364517C14.4932 0.364517 0.323853 14.5339 0.323853 32.0181C0.323853 49.5023 14.4932 63.6761 31.9774 63.6761C49.4639 63.6761 63.6332 49.5068 63.6332 32.0181C63.631 14.5361 49.4616 0.364517 31.9774 0.364517ZM31.9774 59.0742C17.038 59.0742 4.88063 46.919 4.88063 31.9774C4.88063 17.0358 17.038 4.88065 31.9774 4.88065C46.919 4.88065 59.0764 17.0358 59.0764 31.9774C59.0764 46.919 46.9168 59.0742 31.9774 59.0742ZM33.899 17.5168C33.899 16.2748 32.9461 15.2587 31.7809 15.2587C30.6158 15.2587 29.6629 16.2748 29.6629 17.5168V26.9194C29.6629 28.1613 29.6629 29.3265 29.6629 29.5116C29.6629 29.6945 29.5161 29.8435 29.3332 29.8435C29.1503 29.8435 27.9874 29.8435 26.7455 29.8435H17.5009C16.259 29.8435 15.2429 30.7761 15.2429 31.9142C15.2429 33.0545 16.259 33.9871 17.5009 33.9871H26.8493C28.0913 33.9871 29.2316 33.9871 29.3851 33.9871C29.5364 33.9871 29.6629 34.1339 29.6629 34.3168C29.6629 34.4997 29.6629 35.6626 29.6629 36.9045V46.4426C29.6629 47.6845 30.6158 48.7006 31.7809 48.7006C32.9461 48.7006 33.899 47.6845 33.899 46.4426V36.7284C33.899 35.4865 33.899 34.3619 33.899 34.231C33.899 34.1 34.0119 33.9916 34.1497 33.9916C34.2874 33.9916 35.4164 33.9916 36.6561 33.9916H46.4538C47.6958 33.9916 48.7119 33.059 48.7119 31.9187C48.7119 30.7806 47.6958 29.8481 46.4538 29.8481H36.7622C35.5203 29.8481 34.3664 29.8481 34.2016 29.8481C34.0345 29.8481 33.899 29.6652 33.899 29.4439C33.899 29.2203 33.899 28.0213 33.899 26.7794V17.5168Z" fill="#272636"/>
</g>
<defs>
<clipPath id="clip0_227_1552">
<rect width="64" height="64" fill="white"/>
</clipPath>
</defs>
</svg>
