<svg width="51" height="51" viewBox="0 0 51 51" fill="none" xmlns="http://www.w3.org/2000/svg">
<path d="M20.8593 45.7584H8.961L22.035 32.6959C22.2647 32.4658 22.4469 32.1927 22.5712 31.8922C22.6954 31.5918 22.7592 31.2697 22.759 30.9446C22.7588 30.6194 22.6946 30.2975 22.5699 29.9972C22.4453 29.6968 22.2627 29.424 22.0327 29.1942C21.8026 28.9644 21.5295 28.7822 21.229 28.658C20.9285 28.5338 20.6065 28.4699 20.2814 28.4701C19.9562 28.4704 19.6343 28.5346 19.3339 28.6592C19.0336 28.7839 18.7608 28.9664 18.531 29.1965L5.2485 42.4584V30.6792C5.2485 30.0219 4.98738 29.3915 4.52258 28.9267C4.05779 28.4619 3.42739 28.2008 2.77006 28.2008C2.11274 28.2008 1.48234 28.4619 1.01754 28.9267C0.552746 29.3915 0.291626 30.0219 0.291626 30.6792V48.2334C0.291626 49.6015 1.40079 50.7084 2.77121 50.7084H20.8525C21.4905 50.6818 22.0936 50.4099 22.536 49.9494C22.9784 49.4888 23.2258 48.8753 23.2267 48.2367C23.2276 47.5981 22.9819 46.9838 22.5408 46.5221C22.0997 46.0603 21.4973 45.7867 20.8593 45.7584ZM48.2333 0.291721H30.152C29.8181 0.277345 29.4846 0.330713 29.1718 0.448612C28.859 0.566511 28.5733 0.746501 28.3319 0.977742C28.0905 1.20898 27.8984 1.48669 27.7671 1.79414C27.6359 2.1016 27.5682 2.43243 27.5682 2.76672C27.5682 3.10101 27.6359 3.43185 27.7671 3.7393C27.8984 4.04675 28.0905 4.32446 28.3319 4.5557C28.5733 4.78694 28.859 4.96693 29.1718 5.08483C29.4846 5.20273 29.8181 5.2561 30.152 5.24172H42.0412L28.9673 18.2973C28.6184 18.6428 28.3804 19.0843 28.2836 19.5655C28.1867 20.0468 28.2355 20.546 28.4236 20.9995C28.6117 21.4529 28.9307 21.84 29.3397 22.1114C29.7488 22.3828 30.2295 22.5261 30.7204 22.5232C31.3552 22.5232 31.9877 22.2826 32.4712 21.7967L45.7491 8.53485V20.3209C45.7491 20.9782 46.0102 21.6086 46.475 22.0734C46.9398 22.5382 47.5702 22.7993 48.2276 22.7993C48.8849 22.7993 49.5153 22.5382 49.9801 22.0734C50.4449 21.6086 50.706 20.9782 50.706 20.3209V2.76214C50.7063 2.43744 50.6425 2.11587 50.5183 1.81586C50.3942 1.51585 50.212 1.24329 49.9823 1.0138C49.7526 0.784315 49.4799 0.602405 49.1797 0.478496C48.8796 0.354588 48.558 0.291117 48.2333 0.291721Z" fill="#969393"/>
</svg>
