<svg width="64" height="50" viewBox="0 0 64 50" fill="none" xmlns="http://www.w3.org/2000/svg">
<path d="M58.9946 20.4809H4.94874C2.45539 20.4809 0.422495 22.5208 0.422495 25.0071C0.422495 27.5004 2.46249 29.5334 4.94874 29.5334H58.9946C61.4879 29.5334 63.5208 27.4933 63.5208 25.0071C63.5208 22.5208 61.4808 20.4809 58.9946 20.4809ZM58.9733 40.8596H4.9275C2.43414 40.8596 0.401245 42.8996 0.401245 45.3859C0.401245 47.8791 2.44125 49.9121 4.9275 49.9121H58.9733C61.4666 49.9121 63.4996 47.8721 63.4996 45.3859C63.4996 42.8925 61.4666 40.8596 58.9733 40.8596ZM59.0441 0.307495H4.99835C2.505 0.307495 0.472101 2.3475 0.472101 4.83375C0.472101 7.3271 2.5121 9.36 4.99835 9.36H59.0441C61.5375 9.36 63.5704 7.32 63.5704 4.83375C63.5704 2.34039 61.5304 0.307495 59.0441 0.307495Z" fill="#F9F9F9"/>
</svg>
