<svg width="46" height="45" viewBox="0 0 46 45" fill="none" xmlns="http://www.w3.org/2000/svg">
<path d="M33.9863 38.0641V39.5288C33.9863 40.7426 33.0028 41.7261 31.7891 41.7261H8.71777C7.504 41.7261 6.52051 40.7426 6.52051 39.5288V10.9644C6.52051 9.75059 7.504 8.76709 8.71777 8.76709H10.1825V35.8668C10.1825 37.0806 11.166 38.0641 12.3797 38.0641H33.9863Z" fill="white"/>
<path d="M39.4795 13.2205V34.0356C39.4795 35.2494 38.496 36.2329 37.2822 36.2329H14.2109C12.9972 36.2329 12.0137 35.2494 12.0137 34.0356V5.47119C12.0137 4.25742 12.9972 3.27393 14.2109 3.27393H29.5329C29.7271 3.27393 29.9135 3.35127 30.0506 3.48838L39.2646 12.7024C39.4021 12.8399 39.4795 13.0263 39.4795 13.2205Z" fill="white"/>
<path d="M29.1036 12.1847V4.00649L38.7469 13.6499H30.5683C29.7597 13.6499 29.1036 12.9937 29.1036 12.1847Z" fill="#4C4C4C"/>
</svg>
