<svg width="41" height="38" viewBox="0 0 41 38" fill="none" xmlns="http://www.w3.org/2000/svg">
<path fill-rule="evenodd" clip-rule="evenodd" d="M33.4401 28.4467L33.4401 6.83997C33.4401 5.63058 32.9596 4.47073 32.1045 3.61556C31.2493 2.76039 30.0894 2.27997 28.8801 2.27997L9.12006 2.27996C7.91067 2.27996 6.75082 2.76039 5.89565 3.61556C5.04049 4.47072 4.56006 5.63058 4.56006 6.83997L4.56006 31.16C4.56006 32.3694 5.04049 33.5292 5.89565 34.3844C6.75082 35.2395 7.91067 35.72 9.12006 35.72L28.8801 35.72C29.2214 35.72 29.5587 35.6817 29.8864 35.6076L24 32.4826L29 24.5L33.4401 28.4467Z" fill="white"/>
<path d="M40.5 26L33.1851 35.1803L27.1851 31.6803L29.6851 28.1803L33.5002 31L38.8152 24.3569L40.5 26Z" fill="white"/>
<path d="M27.74 12.9201C28.0423 12.9201 28.3323 12.8 28.5461 12.5862C28.7599 12.3724 28.88 12.0825 28.88 11.7801C28.88 11.4778 28.7599 11.1878 28.5461 10.974C28.3323 10.7602 28.0423 10.6401 27.74 10.6401L10.26 10.6401C9.95765 10.6401 9.66769 10.7602 9.45389 10.974C9.2401 11.1878 9.12 11.4778 9.12 11.7801C9.12 12.0825 9.2401 12.3724 9.45389 12.5862C9.66769 12.8 9.95765 12.9201 10.26 12.9201L27.74 12.9201ZM27.74 20.5201C28.0423 20.5201 28.3323 20.4 28.5461 20.1862C28.7599 19.9724 28.88 19.6825 28.88 19.3801C28.88 19.0778 28.7599 18.7878 28.5461 18.574C28.3323 18.3602 28.0423 18.2401 27.74 18.2401L10.26 18.2401C9.95765 18.2401 9.66769 18.3602 9.45389 18.574C9.2401 18.7878 9.12 19.0778 9.12 19.3801C9.12 19.6825 9.2401 19.9724 9.45389 20.1862C9.66769 20.4 9.95765 20.5201 10.26 20.5201L27.74 20.5201ZM20.14 28.1201C20.4423 28.1201 20.7323 28 20.9461 27.7862C21.1599 27.5724 21.28 27.2825 21.28 26.9801C21.28 26.6778 21.1599 26.3878 20.9461 26.174C20.7323 25.9602 20.4423 25.8401 20.14 25.8401L10.26 25.8401C9.95765 25.8401 9.66769 25.9602 9.45389 26.174C9.2401 26.3878 9.12 26.6778 9.12 26.9801C9.12 27.2825 9.2401 27.5724 9.45389 27.7862C9.66768 28 9.95765 28.1201 10.26 28.1201L20.14 28.1201Z" fill="#4C4C4C"/>
</svg>
