<svg width="45" height="45" viewBox="0 0 45 45" fill="none" xmlns="http://www.w3.org/2000/svg">
<path d="M37.4811 27.3932V35.4754C37.4811 36.8662 36.3414 38.0329 34.9992 38.0329L8.77111 38.0793C7.42897 38.0793 6.33425 36.9512 6.33425 35.5604L6.37924 8.53233C6.37924 7.14925 7.51894 5.97479 8.86109 5.97479H23.3698V3H8.86109C5.7944 3 3.5 6.19886 3.5 9.05775V35.5604C3.5 38.5584 5.86188 41 8.77861 41H34.4968C37.571 41 40.3678 38.3652 40.3678 35.4754V27.3932H37.4811ZM30.6803 4.56852L41.5 15.7414L30.6803 26.9065V20.5242C30.6803 20.5242 19.9432 19.2957 13.6748 28.5059C13.6748 28.5059 15.6468 10.9508 30.6803 10.9508V4.56852Z" fill="white"/>
</svg>
