<svg width="53" height="52" viewBox="0 0 53 52" fill="none" xmlns="http://www.w3.org/2000/svg">
<path d="M45.7729 2.47724C47.618 2.47394 49.3945 3.19609 50.7382 4.49569C52.0819 5.79529 52.8911 7.57391 53 9.46701V34.6666C53.0032 36.563 52.3006 38.3888 51.0361 39.7699C49.7717 41.151 48.0412 41.9827 46.1993 42.0946H45.7729V49.5226C45.7729 49.9326 45.6739 50.3363 45.4847 50.6973C45.2956 51.0583 45.0222 51.3654 44.6891 51.5911C44.356 51.8168 43.9736 51.9539 43.5762 51.9903C43.1788 52.0266 42.7789 51.961 42.4123 51.7993L42.1702 51.673L25.8586 42.0909H7.22711C5.382 42.0942 3.60553 41.372 2.26181 40.0724C0.918079 38.7728 0.108859 36.9942 0 35.1011V24.7613C0.00316387 24.1316 0.239501 23.5268 0.66097 23.0699C1.08244 22.6129 1.65741 22.338 2.26899 22.3011C2.88058 22.2642 3.48288 22.4681 3.95347 22.8713C4.42406 23.2744 4.72761 23.8467 4.80241 24.4716V34.6666C4.79963 35.278 5.01694 35.8688 5.41253 36.3255C5.80812 36.7821 6.35404 37.0723 6.94525 37.1401H26.4982C26.8118 37.1403 27.1223 37.2034 27.4124 37.3258L27.6943 37.4669L40.9524 45.2663V39.6173C40.9483 39.0076 41.1632 38.4177 41.5559 37.9606C41.9486 37.5035 42.4916 37.2114 43.0808 37.1401H45.7729C46.363 37.1397 46.9326 36.9168 47.3735 36.5136C47.8144 36.1104 48.096 35.555 48.1651 34.9525V9.90526C48.1695 9.29777 47.9567 8.70976 47.5669 8.25303C47.1772 7.7963 46.6377 7.50269 46.0511 7.42802H24.0879C23.4753 7.42477 22.8869 7.18186 22.4423 6.74867C21.9976 6.31549 21.7302 5.72454 21.6943 5.09595C21.6584 4.46736 21.8567 3.84831 22.249 3.36464C22.6413 2.88097 23.198 2.56899 23.8061 2.4921H24.0879L45.7729 2.47724ZM38.5458 24.7613C38.8699 24.7484 39.1932 24.8029 39.4964 24.9215C39.7996 25.04 40.0763 25.2203 40.3101 25.4514C40.5438 25.6826 40.7298 25.9598 40.8568 26.2666C40.9838 26.5733 41.0493 26.9033 41.0493 27.2367C41.0493 27.5701 40.9838 27.9 40.8568 28.2068C40.7298 28.5136 40.5438 28.7908 40.3101 29.0219C40.0763 29.2531 39.7996 29.4333 39.4964 29.5519C39.1932 29.6705 38.8699 29.725 38.5458 29.7121H14.4542C14.1301 29.725 13.8068 29.6705 13.5036 29.5519C13.2004 29.4333 12.9237 29.2531 12.6899 29.0219C12.4562 28.7908 12.2702 28.5136 12.1432 28.2068C12.0161 27.9 11.9507 27.5701 11.9507 27.2367C11.9507 26.9033 12.0161 26.5733 12.1432 26.2666C12.2702 25.9598 12.4562 25.6826 12.6899 25.4514C12.9237 25.2203 13.2004 25.04 13.5036 24.9215C13.8068 24.8029 14.1301 24.7484 14.4542 24.7613H38.5458ZM9.63735 0C10.2766 0 10.8896 0.260995 11.3416 0.725568C11.7937 1.19014 12.0476 1.82024 12.0476 2.47724V7.42802H16.8645C17.4871 7.45281 18.0761 7.72446 18.5081 8.18597C18.9401 8.64749 19.1814 9.26301 19.1814 9.90341C19.1814 10.5438 18.9401 11.1593 18.5081 11.6208C18.0761 12.0824 17.4871 12.354 16.8645 12.3788H12.044V17.3333C12.0199 17.9732 11.7556 18.5787 11.3065 19.0226C10.8575 19.4666 10.2586 19.7146 9.63554 19.7146C9.01246 19.7146 8.41359 19.4666 7.96456 19.0226C7.51553 18.5787 7.25123 17.9732 7.22711 17.3333V12.3788H2.41024C1.78763 12.354 1.19855 12.0824 0.766575 11.6208C0.334603 11.1593 0.0933074 10.5438 0.0933074 9.90341C0.0933074 9.26301 0.334603 8.64749 0.766575 8.18597C1.19855 7.72446 1.78763 7.45281 2.41024 7.42802H7.22711V2.47724C7.22711 1.82024 7.48104 1.19014 7.93305 0.725568C8.38506 0.260995 8.99811 0 9.63735 0ZM38.5458 14.856C38.8699 14.8431 39.1932 14.8976 39.4964 15.0162C39.7996 15.1348 40.0763 15.315 40.3101 15.5462C40.5438 15.7773 40.7298 16.0546 40.8568 16.3613C40.9838 16.6681 41.0493 16.998 41.0493 17.3314C41.0493 17.6648 40.9838 17.9948 40.8568 18.3015C40.7298 18.6083 40.5438 18.8856 40.3101 19.1167C40.0763 19.3478 39.7996 19.5281 39.4964 19.6467C39.1932 19.7652 38.8699 19.8197 38.5458 19.8068H24.0916C23.7674 19.8197 23.4441 19.7652 23.1409 19.6467C22.8378 19.5281 22.561 19.3478 22.3273 19.1167C22.0935 18.8856 21.9075 18.6083 21.7805 18.3015C21.6535 17.9948 21.588 17.6648 21.588 17.3314C21.588 16.998 21.6535 16.6681 21.7805 16.3613C21.9075 16.0546 22.0935 15.7773 22.3273 15.5462C22.561 15.315 22.8378 15.1348 23.1409 15.0162C23.4441 14.8976 23.7674 14.8431 24.0916 14.856H38.5458Z" fill="white"/>
</svg>
