<svg width="107" height="58" viewBox="0 0 107 58" fill="none" xmlns="http://www.w3.org/2000/svg">
<g id="ani_voice_corrugation1" clip-path="url(#clip0_1928_894)">
<path id="Vector" d="M16.4714 17.4999H8.23572C3.69321 17.4999 0 21.1807 0 25.7366L0 49.7632C0 54.3063 3.68034 57.9999 8.23572 57.9999H16.4714C21.014 57.9999 24.7072 54.3191 24.7072 49.7632V25.7366C24.6943 21.1936 21.014 17.4999 16.4714 17.4999ZM57.6243 0.381592H49.3886C44.8461 0.381592 41.1529 4.06237 41.1529 8.6183V49.7632C41.1529 54.3063 44.8332 57.9999 49.3886 57.9999H57.6243C62.1668 57.9999 65.86 54.3191 65.86 49.7632V8.60543C65.8471 4.06237 62.1668 0.381592 57.6243 0.381592ZM98.7643 25.7366H90.5286C85.9861 25.7366 82.2928 29.4174 82.2928 33.9733V49.7632C82.2928 54.3063 85.9732 57.9999 90.5286 57.9999H98.7643C103.307 57.9999 107 54.3191 107 49.7632V33.9605C107 29.4174 103.32 25.7366 98.7643 25.7366Z" fill="#F9F9F9"/>
</g>
<defs>
<clipPath id="clip0_1928_894">
<rect width="107" height="58" fill="white"/>
</clipPath>
</defs>
</svg>
