<svg width="64" height="64" viewBox="0 0 64 64" fill="none" xmlns="http://www.w3.org/2000/svg">
<path d="M37.2256 10.1184C36.3008 9.60154 35.2525 9.34661 34.1937 9.381C33.1348 9.4154 32.1053 9.73781 31.216 10.3136L21.5968 16.4352C21.214 16.6779 20.77 16.8067 20.3168 16.8064H15.1968C13.075 16.8064 11.0402 17.6492 9.53992 19.1495C8.03963 20.6498 7.19678 22.6846 7.19678 24.8064V37.76C7.19678 39.8817 8.03963 41.9165 9.53992 43.4168C11.0402 44.9171 13.075 45.76 15.1968 45.76H19.9552C20.4078 45.7576 20.8518 45.8841 21.2352 46.1248L31.248 52.432C32.1866 53.0314 33.2766 53.3511 34.3904 53.3536C35.3906 53.3503 36.3737 53.0938 37.248 52.608C38.1776 52.1035 38.9527 51.3559 39.4904 50.4451C40.0281 49.5343 40.3082 48.4944 40.3008 47.4368V15.296C40.3083 14.2347 40.0258 13.1916 39.4838 12.2791C38.9419 11.3667 38.1611 10.6196 37.2256 10.1184ZM36.7712 47.424C36.7719 47.8509 36.6579 48.2701 36.4413 48.6379C36.2246 49.0058 35.9131 49.3087 35.5394 49.515C35.1656 49.7213 34.7434 49.8235 34.3167 49.8108C33.8899 49.7982 33.4745 49.6712 33.1136 49.4432L23.1008 43.1328C22.1569 42.5456 21.0668 42.2362 19.9552 42.24H15.1968C14.6085 42.24 14.0259 42.1241 13.4824 41.899C12.9388 41.6738 12.4449 41.3438 12.0289 40.9278C11.6129 40.5118 11.2829 40.0179 11.0578 39.4744C10.8327 38.9309 10.7168 38.3483 10.7168 37.76V24.8032C10.7168 23.615 11.1888 22.4755 12.0289 21.6353C12.8691 20.7952 14.0086 20.3232 15.1968 20.3232H20.3168C21.4399 20.3232 22.5398 20.0035 23.488 19.4016L33.104 13.28C33.4646 13.0497 33.8805 12.9207 34.3081 12.9065C34.7357 12.8923 35.1592 12.9934 35.5343 13.1993C35.9093 13.4051 36.2221 13.7081 36.4397 14.0765C36.6573 14.4448 36.7718 14.8649 36.7712 15.2928V47.424ZM58.016 24.4032C57.6722 24.0875 57.2172 23.9213 56.7509 23.9411C56.2846 23.9609 55.8453 24.1651 55.5296 24.5088L51.6224 28.7584L47.7184 24.5088C47.3992 24.1834 46.9662 23.9945 46.5106 23.982C46.055 23.9694 45.6123 24.134 45.2756 24.4412C44.9389 24.7485 44.7346 25.1743 44.7056 25.6292C44.6765 26.0841 44.8251 26.5324 45.12 26.88L49.2256 31.36L45.12 35.84C44.9589 36.0093 44.8332 36.209 44.7502 36.4275C44.6671 36.6459 44.6284 36.8787 44.6363 37.1123C44.6442 37.3458 44.6986 37.5755 44.7961 37.7878C44.8937 38.0002 45.0326 38.191 45.2048 38.3491C45.3769 38.5071 45.5787 38.6294 45.7986 38.7086C46.0184 38.7878 46.2519 38.8225 46.4853 38.8106C46.7186 38.7986 46.9473 38.7403 47.1579 38.6391C47.3686 38.5378 47.5569 38.3956 47.712 38.2208L51.616 33.9712L55.5232 38.2208C55.8412 38.5552 56.2779 38.7513 56.7391 38.7669C57.2003 38.7825 57.6492 38.6163 57.9891 38.3041C58.329 37.9919 58.5326 37.5587 58.5562 37.0978C58.5798 36.6369 58.4214 36.1852 58.1152 35.84L54.0128 31.36L58.1216 26.88C58.4343 26.5367 58.5986 26.0838 58.5788 25.6198C58.5591 25.1559 58.3567 24.7186 58.016 24.4032Z" fill="white"/>
</svg>
